#define ar_down_width 12
#define ar_down_height 12
static unsigned char ar_down_bits[] = {
  0x00, 0x00, 0x70, 0x00, 0x70, 0x00, 0x70, 0x00, 0x70, 0x00, 0x70, 0x00,
  0x70, 0x00, 0xfc, 0x01, 0xf8, 0x00, 0x70, 0x00, 0x20, 0x00, 0x00, 0x00,
  };
