#define ar_left_width 12
#define ar_left_height 12
static unsigned char ar_left_bits[] = {
  0x00, 0x00, 0x00, 0x00, 0x10, 0x00, 0x18, 0x00, 0xfc, 0x07, 0xfe, 0x07,
  0xfc, 0x07, 0x18, 0x00, 0x10, 0x00, 0x00, 0x00, 0x00, 0x00, 0x00, 0x00,
  };
