#define ar_right_width 12
#define ar_right_height 12
static unsigned char ar_right_bits[] = {
  0x00, 0x00, 0x00, 0x00, 0x80, 0x00, 0x80, 0x01, 0xfe, 0x03, 0xfe, 0x07,
  0xfe, 0x03, 0x80, 0x01, 0x80, 0x00, 0x00, 0x00, 0x00, 0x00, 0x00, 0x00,
  };
