#define left_width 12
#define left_height 12
static unsigned char left_bits[] = {
  0x00, 0x00, 0x00, 0x03, 0xc0, 0x03, 0xf0, 0x03, 0xf0, 0x03, 0xfe, 0x03,
  0xfe, 0x03, 0xf8, 0x03, 0xe0, 0x03, 0x80, 0x03, 0x00, 0x03, 0x00, 0x00,
  };
