#define lens_width 20
#define lens_height 20
static unsigned char lens_bits[] = {
  0x00, 0x00, 0x00, 0x80, 0x1f, 0x00, 0x60, 0x7f, 0x00, 0xd0, 0xe0, 0x00,
  0x28, 0x80, 0x01, 0x18, 0x00, 0x01, 0x14, 0x00, 0x03, 0x0c, 0x00, 0x02,
  0x0c, 0x00, 0x02, 0x0c, 0x00, 0x02, 0x08, 0x00, 0x03, 0x18, 0x00, 0x01,
  0x10, 0x80, 0x01, 0x60, 0xe0, 0x00, 0xf0, 0x7f, 0x00, 0x78, 0x1f, 0x00,
  0x38, 0x00, 0x00, 0x1c, 0x00, 0x00, 0x0e, 0x00, 0x00, 0x00, 0x00, 0x00,
  };
