#define lleft_width 12
#define lleft_height 12
static unsigned char lleft_bits[] = {
  0x00, 0x00, 0x06, 0x06, 0x86, 0x07, 0xe6, 0x07, 0xf6, 0x07, 0xfe, 0x07,
  0xfe, 0x07, 0xf6, 0x07, 0xc6, 0x07, 0x06, 0x07, 0x06, 0x04, 0x00, 0x00,
  };
