#define reset_width 12
#define reset_height 12
static unsigned char reset_bits[] = {
  0x7f, 0x00, 0xfc, 0x00, 0xf0, 0x01, 0xc0, 0x03, 0x80, 0x07, 0x98, 0x07,
  0x9c, 0x07, 0xfe, 0x03, 0xff, 0x01, 0x7e, 0x00, 0x1c, 0x00, 0x18, 0x00,
  };
