#define right_width 12
#define right_height 12
static unsigned char right_bits[] = {
  0x00, 0x00, 0x0c, 0x00, 0x3c, 0x00, 0xfc, 0x00, 0xfc, 0x00, 0xfc, 0x07,
  0xfc, 0x07, 0xfc, 0x01, 0x7c, 0x00, 0x1c, 0x00, 0x0c, 0x00, 0x00, 0x00,
  };
