#define rright_width 12
#define rright_height 12
static unsigned char rright_bits[] = {
  0x00, 0x00, 0x0c, 0x0c, 0x3c, 0x0c, 0xfc, 0x0c, 0xfc, 0x0d, 0xfc, 0x0f,
  0xfc, 0x0f, 0xfc, 0x0d, 0x7c, 0x0c, 0x1c, 0x0c, 0x04, 0x0c, 0x00, 0x00,
  };
