#define top_width 12
#define top_height 12
static unsigned char top_bits[] = {
  0x00, 0x00, 0x60, 0x00, 0x60, 0x00, 0xf0, 0x00, 0xf8, 0x00, 0xf8, 0x01,
  0xfc, 0x01, 0xfc, 0x03, 0xfe, 0x07, 0xfe, 0x07, 0x00, 0x00, 0x00, 0x00,
  };
